# xmcd CD database file
#
# Track frame offsets:
#	150
#	15450
#	36250
#	48600
#
# Disc length: 848 seconds
#
# Revision: 0
# Processed by: cddbd v1.5.1PL2 Copyright (c) Steve Scherf et al.
# Submitted via: CDex 1.51
#
DISCID=2b034e04
DTITLE=RYTHEM - ブルースカイ・ブルー
DYEAR=2003
DGENRE=JPop
TTITLE0=ブルースカイ・ブルー
TTITLE1=女友達
TTITLE2=ブルースカイ・ブルー (ブラスバンドヴァージョン)
TTITLE3=ブルースカイ・ブルー (Instrumental)
EXTD=YEAR: 2003
EXTT0=
EXTT1=
EXTT2=
EXTT3=
PLAYORDER=
